PathFileType	4	(X/Y/Z)	/private/var/folders/ty/39vw2z0n5t95rf49mx2f_75w0000gn/T/tmpv4vay5ru_Sports2D/tmpv4vay5ru_Sports2D_px_person00.trc
DataRate	CameraRate	NumFrames	NumMarkers	Units	OrigDataRate	OrigDataStartFrame	OrigNumFrames
60	60	11	22	m	60	27	220
Frame#	Time	Hip			RHip			RKnee			RAnkle			RBigToe			RSmallToe			RHeel			LHip			LKnee			LAnkle			LBigToe			LSmallToe			LHeel			Neck			Head			Nose			RShoulder			RElbow			RWrist			LShoulder			LElbow			LWrist		
		X1	Y1	Z1	X2	Y2	Z2	X3	Y3	Z3	X4	Y4	Z4	X5	Y5	Z5	X6	Y6	Z6	X7	Y7	Z7	X8	Y8	Z8	X9	Y9	Z9	X10	Y10	Z10	X11	Y11	Z11	X12	Y12	Z12	X13	Y13	Z13	X14	Y14	Z14	X15	Y15	Z15	X16	Y16	Z16	X17	Y17	Z17	X18	Y18	Z18	X19	Y19	Z19	X20	Y20	Z20	X21	Y21	Z21	X22	Y22	Z22
27	0.45	189.25374998251215	554.590713126372	0.0	157.27796199074402	547.9445059503965	0.0	124.15182724028698	666.3517255241459	0.0	86.14531283336399	767.20282622696	0.0	110.56563309113724	793.9164008327419	0.0	93.91992888495518	795.5829831591789	0.0	76.36377533876811	781.4893287985045	0.0	215.98729112054212	556.3013136256058	0.0	268.8262485794005	650.2135565137099	0.0	234.77318477724117	755.987038559071	0.0	273.92938912794216	782.099403092185	0.0	274.9777668419134	775.0850450841414	0.0	222.7414812697735	770.63944022141	0.0	270.21056437304327	441.88284752807874	0.0	319.08896223111213	383.6474675747925	0.0	317.3947764228773	423.40721692062573	0.0	212.16378118081667	451.5605647824362	0.0	165.2103678097073	525.2931765226331	0.0	185.67176279463808	600.5196963729197	0.0	293.6316034750085	470.5277686118208	0.0	280.88068643818787	535.4072835401644	0.0	281.80989711148897	599.6412988185947	0.0
28	0.4666666666666667	191.5948720390452	556.3688345737381	0.0	160.06231638529556	548.7308165776927	0.0	124.70889171691476	667.5273455305138	0.0	86.09743888080504	767.4406582509434	0.0	111.11031723196662	793.9529045253848	0.0	94.61121565047692	795.3388947199211	0.0	76.5157536271642	781.5542928974331	0.0	218.8147975338484	558.4505794909286	0.0	274.297960389806	650.2616410970054	0.0	235.80207527556115	754.3835275213098	0.0	274.8684417508789	781.6915282261839	0.0	275.4782365209723	774.4475109556676	0.0	222.84321317649486	768.5193483450839	0.0	274.6370502068732	445.22163099287434	0.0	323.71089900215924	387.09247967197416	0.0	322.05969449824215	426.7060876952896	0.0	217.67231472691307	455.3698981126051	0.0	171.87488491475412	530.0224850119897	0.0	197.15044684473824	605.1353440626259	0.0	297.3620971636585	472.9962670969895	0.0	280.9070785211908	536.8892542021318	0.0	279.13500896057286	601.4449079989871	0.0
29	0.48333333333333334	194.2288347793547	558.6539623939739	0.0	163.31092067539274	550.1428564071316	0.0	125.34278797226872	668.7516101587956	0.0	86.0826686717462	767.7319816102294	0.0	111.87264974805741	794.2199047987943	0.0	95.42307680914045	795.1757928806909	0.0	76.51761997212257	781.643987007182	0.0	221.82594392570945	561.2654939084248	0.0	280.1977114092584	650.30585215442	0.0	237.0126568668791	752.3713149351277	0.0	275.97455909109135	781.2535173854194	0.0	276.0724103637349	773.6760776007904	0.0	223.10435795212396	765.8536867522686	0.0	279.5205231097084	448.74383884014424	0.0	328.70232532498426	390.701714121022	0.0	327.09008131370695	430.1708917184791	0.0	223.90849844381447	459.3079203046579	0.0	179.3673032084865	535.0199864015378	0.0	210.76512834691934	609.2916097349	0.0	301.5929424328602	475.58108463465777	0.0	280.4546144286908	538.58701661884	0.0	276.5791691215061	602.8020228501988	0.0
30	0.5	197.21244963492043	561.381596246298	0.0	167.11400547654614	552.2454350793982	0.0	126.18082855227784	669.9003453404897	0.0	86.0993185509515	768.0683400066744	0.0	112.55663799572282	794.6729071636644	0.0	96.12642108246607	795.10381348241	0.0	76.3638751939765	781.7955976367092	0.0	224.90498822685103	564.5788527405504	0.0	286.4239065822384	650.4915657128967	0.0	238.3400822344692	750.1391937482737	0.0	277.0750034993882	780.7606599437197	0.0	276.67045950158195	772.8603776387325	0.0	223.57217288931076	762.9222799559659	0.0	284.9151444440047	452.40418335449544	0.0	334.1641199894919	394.2672151884763	0.0	332.4576299323957	433.64965622030445	0.0	230.93866291732022	463.27429411539265	0.0	187.71095060926666	540.0159332684731	0.0	226.38184762103927	612.4709148423273	0.0	306.4063773127143	478.2333359791002	0.0	279.4175435405011	540.4814267262681	0.0	274.81492020275294	603.4663694871956	0.0
31	0.5166666666666666	200.73796106769544	564.2847941791609	0.0	171.66749677023068	554.8054385593625	0.0	127.47099280571452	670.7785298184921	0.0	86.19352894685875	768.3758046255416	0.0	112.84679288891407	795.2249724958436	0.0	96.4645552351291	795.1180882507869	0.0	76.13149048872405	781.9308338593698	0.0	228.10874196848388	568.0488682214062	0.0	292.8462288460934	651.013069837253	0.0	239.72150815503366	747.8926029535269	0.0	277.96047064879934	780.1692434284283	0.0	277.1340483206773	772.0666167722533	0.0	224.23823323277944	760.0582356521908	0.0	290.85877421831435	456.0893601762007	0.0	340.1739780481234	397.5867400711888	0.0	338.1599412558364	436.97163868486496	0.0	238.7526730977487	467.0402657584258	0.0	196.95845078702135	544.6873571863529	0.0	243.59466671107518	614.1062892666558	0.0	311.81203588328674	480.92979142735146	0.0	277.85258429622513	542.4209806861599	0.0	274.6021861049179	603.1314913280629	0.0
32	0.5333333333333333	205.10174050018506	566.9579330151295	0.0	177.15724094851413	557.3532358961133	0.0	129.51258247424263	671.2833938400958	0.0	86.45601889372024	768.5354320641203	0.0	112.5746511702047	795.7744145341027	0.0	96.30092806360035	795.1809165991316	0.0	75.94544790223583	781.8279071149525	0.0	231.78084066272618	571.312379023681	0.0	299.3138461798145	652.0360343100305	0.0	241.09812499847538	745.8035170388997	0.0	278.44954017888693	779.6343779656829	0.0	277.29698357947984	771.4014110406699	0.0	225.04385441818985	757.4475337378688	0.0	297.3741548068796	459.6355975101473	0.0	346.7414214828262	400.55556549014267	0.0	344.27772610943697	440.0000629726445	0.0	247.24360783200152	470.3202900063695	0.0	207.104102542981	548.698532057686	0.0	261.7493409716735	613.7497068848867	0.0	317.78494352916834	483.63857303039185	0.0	276.13387490141224	544.0458936793214	0.0	276.6694832107376	601.6360273422573	0.0
33	0.55	210.59404647624066	569.0707388281195	0.0	183.67457190878454	559.4939488429466	0.0	132.56433863011975	671.5571353501814	0.0	86.97678238828861	768.4111062756647	0.0	111.76481772510526	796.2334041887624	0.0	95.67189022240672	795.2290213418397	0.0	75.92190760385455	781.3097135657531	0.0	236.4299401632881	574.0909715354286	0.0	305.6344801512891	653.6467678800932	0.0	242.39535996784588	743.9927523555259	0.0	278.42563278180853	779.431252961543	0.0	277.0469164798453	771.0726449415289	0.0	225.89122467324	755.1450447815085	0.0	304.49011341482515	462.8630795764265	0.0	353.8973622161974	403.1134107808262	0.0	351.00232227738826	442.6356823363332	0.0	256.2231477415039	472.88135766073583	0.0	218.01806289337162	551.7274107075392	0.0	279.9961697089868	611.2702649531467	0.0	324.3488859523172	486.22678420497436	0.0	274.99752725918	544.9495528529769	0.0	281.6112795094603	599.2629734362723	0.0
34	0.5666666666666667	217.3743412747915	570.5584652154326	0.0	191.24474224064141	561.1391144102314	0.0	136.84504110721284	671.974772280527	0.0	87.82617360620952	767.854078532864	0.0	110.56229259162023	796.5472200747289	0.0	94.71581233736258	795.1696689597609	0.0	76.16906247091043	780.3214417100423	0.0	242.44523381448408	576.2538011360923	0.0	311.5818654181994	655.8814014960327	0.0	243.48500506921306	742.5626546156171	0.0	277.8213959093648	779.6798725321822	0.0	276.3547482926356	771.2954592761118	0.0	226.63499648466768	753.2252262348118	0.0	312.24929924609114	465.6059602636393	0.0	361.7882945488829	405.2252126510664	0.0	358.55012583739557	444.8429439402696	0.0	265.5710062181363	474.58744474226444	0.0	229.40914150167666	553.4766895945601	0.0	297.3606862186896	606.9514257800602	0.0	331.5652939376659	488.4877377082501	0.0	275.3834174783548	544.9987238785153	0.0	289.5578271359308	596.5986515149858	0.0
35	0.5833333333333334	225.3902456387713	571.575586555827	0.0	199.80303052746896	562.3988962020588	0.0	142.58278267940884	672.980567796784	0.0	89.10161497206272	766.707537225832	0.0	109.177036893398	796.7057811089127	0.0	93.61426805952509	794.8758049489296	0.0	76.83308283586203	778.720365538295	0.0	249.86550639857887	577.866218078134	0.0	316.9465965360625	658.7505986708686	0.0	244.19457359896785	741.6283137642487	0.0	276.6558960288179	780.274166395734	0.0	275.2570838716767	772.1048548511174	0.0	227.10700252888742	751.8047438591311	0.0	320.6623801883597	467.73693059047025	0.0	370.5707123689729	406.9488101541488	0.0	367.00056619922464	446.6850989996774	0.0	275.3337250283799	475.41982696116287	0.0	240.80428746878513	553.7382132958784	0.0	312.84589273751146	601.4999941191965	0.0	339.4252195870339	490.30439874726676	0.0	278.03706930702793	544.4192948129586	0.0	299.6406510058203	594.0675658224425	0.0
36	0.6	234.3679828940984	572.3144985059695	0.0	209.13904611312645	563.3674083153412	0.0	150.1223139624316	674.8534553752432	0.0	91.03679158673667	764.8069830997048	0.0	107.87336737125516	796.7358490847397	0.0	92.61524896272634	794.2161368271983	0.0	78.19469822015441	776.1201978701891	0.0	258.3645682161452	579.135021457152	0.0	321.57979148898363	662.2171288484749	0.0	244.39335547029197	741.2968454318886	0.0	275.055185463093	781.0399667234065	0.0	273.8519662301134	773.3324340603542	0.0	227.176417207444	750.97255421319	0.0	329.6901352064384	469.2022759480578	0.0	380.21793070707554	408.4318790815764	0.0	376.26739552568785	448.2752540465134	0.0	285.63246635534495	475.4887665211083	0.0	251.61682287592296	552.4808737882148	0.0	325.5409701389889	595.9465431299346	0.0	347.8409949757641	491.735814901664	0.0	283.1944152928461	543.5852595045203	0.0	310.07660015934647	591.8904780645499	0.0
37	0.6166666666666667	243.87701406561877	572.9143636784124	0.0	218.97050737126014	564.0830031668532	0.0	159.97805354970217	677.5984083206389	0.0	94.08617839299087	761.9579426761352	0.0	106.98301456007182	796.6165626490324	0.0	92.10664239190825	793.0774245776297	0.0	80.72631093916196	772.0706397327573	0.0	267.45065039424986	580.2249745716967	0.0	325.415036761597	666.1546784388927	0.0	244.10432234037083	741.6175384767249	0.0	273.1984043973509	781.8195214098067	0.0	272.32730808819474	774.7606552373231	0.0	226.81790534935564	750.7853690363892	0.0	339.314161210184	470.06517381409316	0.0	390.5382842155453	409.7904999914394	0.0	386.23113008205905	449.6573554542664	0.0	296.53556675651157	475.02589973061845	0.0	261.31586128575674	549.8738860928387	0.0	334.731995752226	591.3923924928166	0.0	356.73263227632367	492.9358465156004	0.0	290.7202713875506	542.8456397371983	0.0	319.403891900332	590.5082535469166	0.0
